# xmcd CD database file
#
# Track frame offsets:
#       150
#       13061
#       27741
#       43827
#       58995
#       74970
#       93466
#       106306
#       119925
#       133345
#       145626
#       157207
#       168937
#       186120
#       207989
#
# Disc length: 3016 seconds
#
# Revision: 0
# Processed by: cddbd v1.5.2PL0 Copyright (c) Steve Scherf et al.
# Submitted via: jack 3.1.1
#
DISCID=f60bc60f
DTITLE=Various Artist - Now! Country Classics - Disc 1
DYEAR=2007
DGENRE=Country
TTITLE0=Anne Murray - He Thinks I Still Care
TTITLE1=Asleep At The Wheel - The Letter That Johnny Walker Read
TTITLE2=Nitty Gritty Dirt Band - An American Dream
TTITLE3=Jessi Colter - I'm Not Lisa
TTITLE4=Kenny Rogers - The Gambler
TTITLE5=Juice Newton - The Sweetest Thing (I've Ever Known)
TTITLE6=Michael Martin Murphy - What's Forever For
TTITLE7=Dottie West - A Lesson In Leavin'
TTITLE8=Mel McDaniel - Baby's Got Her Blue Jeans On
TTITLE9=Tanya Tucker - Strong Enough To Bend
TTITLE10=Chris LeDoux - Whatcha Gonna Do With A Cowboy (Duet with Garth Brooks)
TTITLE11=Lacy J. Dalton - Love Hurts
TTITLE12=Ron Hynes - Cryer's Paradise
TTITLE13=Deana Carter - Strawberry Wine
TTITLE14=Chris Cagle - I Breathe In, I Breathe Out
EXTD=
EXTT0=
EXTT1=
EXTT2=
EXTT3=
EXTT4=
EXTT5=
EXTT6=
EXTT7=
EXTT8=
EXTT9=
EXTT10=
EXTT11=
EXTT12=
EXTT13=
EXTT14=
PLAYORDER=
